mtllib cores.mtl
o ESTRELA1
usemtl cor_bf8c2c
# tipo wireframe
v 0.0 200.0 0.0
v 23.0 130.0 0.0
v 95.0 130.0 0.0
v 37.0 85.0 0.0
v 60.0 15.0 0.0
v 0.0 55.0 0.0
v -60.0 15.0 0.0
v -37.0 85.0 0.0
v -95.0 130.0 0.0
v -23.0 130.0 0.0
l 1 2 3 4 5 6 7 8 9 10 1
o QUADRADO1
usemtl cor_219129
# tipo wireframe
v -36.60254037844387 136.6025403784439 0.0
v 136.6025403784439 236.60254037844385 0.0
v 236.60254037844385 63.39745962155612 0.0
v 63.39745962155612 -36.60254037844386 0.0
l 11 12 13 14 11
o TRIANGULO1
usemtl cor_ff006f
# tipo wireframe
v -259.2467620183779 170.02345939129813 0.0
v -15.821035063990834 235.24918634568513 0.0
v -215.14676201837784 246.40690000508567 0.0
l 15 16 17 15
o LINHA1
usemtl cor_2f409e
# tipo linha
v 300.0 0.0 0.0
v 0.0 300.0 0.0
l 18 19
o PONTO1
usemtl cor_ff1e00
# tipo ponto
v 0.0 0.0 0.0
p 20
o POLIGONO_GENERICO1
usemtl cor_7b309c
# tipo wireframe
v -122.0 -131.0 0.0
v -192.0 -121.0 0.0
v -222.0 -196.0 0.0
v -172.0 -231.0 0.0
v -112.0 -181.0 0.0
l 21 22 23 24 25 21
o POLIGONO_CONVEXO_NAO_PREENCHIDO
usemtl cor_000080
# tipo wireframe
v -191.68740609635302 128.24517311917486 0.0
v 128.31259390364698 128.24517311917486 0.0
v 83.51259390364697 64.24517311917485 0.0
v 128.31259390364698 38.645173119174856 0.0
v 32.31259390364697 0.24517311917485074 0.0
v 96.31259390364697 -108.55482688082516 0.0
v -159.68740609635302 -140.55482688082515 0.0
v -82.88740609635303 -12.55482688082515 0.0
l 26 27 28 29 30 31 32 33 26
o POLIGONO_CONVEXO_PREENCHIDO
usemtl cor_f5f5dc
# tipo poligono_preenchido
v 29.6875 -105.9375 0.0
v 154.6875 -105.9375 0.0
v 137.1875 -130.9375 0.0
v 154.6875 -140.9375 0.0
v 117.1875 -155.9375 0.0
v 142.1875 -198.4375 0.0
v 42.1875 -210.9375 0.0
v 72.1875 -160.9375 0.0
f 34 35 36 37 38 39 40 41
o LINHA2
usemtl cor_dc143c
# tipo linha
v -17.766470182098146 241.06569806689032 0.0
v 117.76647018209815 138.93430193310968 0.0
l 42 43
